<?xml version="1.0" encoding="UTF-8"?>
<!--
  QUADRANTE 6 v2 — ARRANJO FOTOVOLTAICO com separação entre placas
  Ajustes vs v1:
    - Módulos afastados horizontalmente (gap 60px entre centros)
    - Traços horizontais "L" conectando cada MPPT ao seu módulo
    - Aterramento reposicionado ao centro do bloco
-->
<svg xmlns="http://www.w3.org/2000/svg" viewBox="0 0 1450 700" width="1450" height="700">
  <rect x="0" y="0" width="1450" height="700" fill="#FFFFFF"/>

  <!-- ═══ BARRAMENTO CA SUPERIOR ═══ -->
  <text x="180" y="18" font-family="Helvetica, Arial, sans-serif" font-size="11" font-weight="bold" fill="#111827">1#4(4)+T4mm²</text>
  <text x="380" y="18" font-family="Helvetica, Arial, sans-serif" font-size="11" font-weight="bold" fill="#111827">1#4(4)+T4mm²</text>
  <line x1="150" y1="30" x2="1370" y2="30" stroke="#111827" stroke-width="1.2"/>

  <!-- ═════════════════ LINHA SUPERIOR — 4 MICROINVERSORES ═════════════════ -->

  <!-- ─────── MICROINVERSOR 1 (centro=150) ─────── -->
  <line x1="150" y1="30" x2="150" y2="60" stroke="#111827" stroke-width="1"/>
  <g transform="translate(150, 85)">
    <rect x="-30" y="-25" width="60" height="50" fill="#eef3fa" stroke="#111827" stroke-width="1.2"/>
    <line x1="-30" y1="25" x2="30" y2="-25" stroke="#1a4f8b" stroke-width="0.8"/>
    <path d="M -22 -12 q 4 -8 8 0 t 8 0" fill="none" stroke="#111827" stroke-width="1.1"/>
    <line x1="6" y1="8" x2="24" y2="8" stroke="#111827" stroke-width="1"/>
    <line x1="6" y1="14" x2="24" y2="14" stroke="#111827" stroke-width="1"/>
  </g>
  <text x="200" y="70" font-family="Helvetica, Arial, sans-serif" font-size="10" fill="#111827">Marca: WEG</text>
  <text x="200" y="83" font-family="Helvetica, Arial, sans-serif" font-size="10" fill="#111827">Modelo: SIW 100 M010 W00</text>
  <text x="200" y="96" font-family="Helvetica, Arial, sans-serif" font-size="10" fill="#111827">Tensão CA: 220V</text>
  <text x="200" y="109" font-family="Helvetica, Arial, sans-serif" font-size="10" fill="#111827">Corrente CA: 4,54A</text>

  <!-- MPPT 1 desce vertical + "L" horizontal pro módulo esquerdo -->
  <line x1="135" y1="110" x2="135" y2="190" stroke="#111827" stroke-width="1"/>
  <line x1="135" y1="190" x2="115" y2="190" stroke="#111827" stroke-width="1"/>
  <line x1="115" y1="190" x2="115" y2="200" stroke="#111827" stroke-width="1"/>
  <!-- MPPT 2 desce vertical + "L" horizontal pro módulo direito -->
  <line x1="165" y1="110" x2="165" y2="190" stroke="#111827" stroke-width="1"/>
  <line x1="165" y1="190" x2="185" y2="190" stroke="#111827" stroke-width="1"/>
  <line x1="185" y1="190" x2="185" y2="200" stroke="#111827" stroke-width="1"/>

  <text x="128" y="145" font-family="Helvetica, Arial, sans-serif" font-size="9" text-anchor="end" fill="#111827" transform="rotate(-90 128 145)">MPPT 1</text>
  <text x="172" y="145" font-family="Helvetica, Arial, sans-serif" font-size="9" fill="#111827" transform="rotate(-90 172 145)">MPPT 2</text>

  <text x="200" y="130" font-family="Helvetica, Arial, sans-serif" font-size="10" fill="#111827">4mm² Positivo</text>
  <text x="200" y="143" font-family="Helvetica, Arial, sans-serif" font-size="10" fill="#111827">4mm² Negativo</text>
  <text x="200" y="156" font-family="Helvetica, Arial, sans-serif" font-size="10" fill="#111827">4mm² Proteção</text>

  <!-- 2 Módulos SEPARADOS (x=115 e x=185, gap 70) -->
  <g transform="translate(115, 216)">
    <rect x="-14" y="-16" width="28" height="32" fill="#FFFFFF" stroke="#111827" stroke-width="1"/>
    <polygon points="-8,8 8,8 0,-8" fill="#111827"/>
  </g>
  <g transform="translate(185, 216)">
    <rect x="-14" y="-16" width="28" height="32" fill="#FFFFFF" stroke="#111827" stroke-width="1"/>
    <polygon points="-8,8 8,8 0,-8" fill="#111827"/>
  </g>

  <text x="200" y="185" font-family="Helvetica, Arial, sans-serif" font-size="10" fill="#111827">Módulos fotovoltaicos</text>
  <text x="200" y="198" font-family="Helvetica, Arial, sans-serif" font-size="10" fill="#111827">Marca: WEG</text>
  <text x="200" y="211" font-family="Helvetica, Arial, sans-serif" font-size="10" fill="#111827">Modelo: WPV550-555HMM3-550W</text>
  <text x="200" y="224" font-family="Helvetica, Arial, sans-serif" font-size="10" fill="#111827">Tensão CC (Vmp): 41,96V</text>
  <text x="200" y="237" font-family="Helvetica, Arial, sans-serif" font-size="10" fill="#111827">Corrente CC (Imp): 13,11A</text>

  <!-- Aterramento verde (centralizado entre os 2 módulos, embaixo) -->
  <g transform="translate(150, 255)">
    <line x1="-6" y1="0" x2="6" y2="0" stroke="#1e8449" stroke-width="1.7"/>
    <line x1="-4" y1="3" x2="4" y2="3" stroke="#1e8449" stroke-width="1.7"/>
    <line x1="-2" y1="6" x2="2" y2="6" stroke="#1e8449" stroke-width="1.7"/>
  </g>

  <text x="140" y="278" font-family="Helvetica, Arial, sans-serif" font-size="10" font-weight="bold" fill="#111827">Potência total:</text>
  <text x="200" y="292" font-family="Helvetica, Arial, sans-serif" font-size="10" fill="#111827">2 * 550Wp = 1.100Wp</text>


  <!-- ─────── MICROINVERSOR 2 (centro=480) ─────── -->
  <line x1="480" y1="30" x2="480" y2="60" stroke="#111827" stroke-width="1"/>
  <g transform="translate(480, 85)">
    <rect x="-30" y="-25" width="60" height="50" fill="#eef3fa" stroke="#111827" stroke-width="1.2"/>
    <line x1="-30" y1="25" x2="30" y2="-25" stroke="#1a4f8b" stroke-width="0.8"/>
    <path d="M -22 -12 q 4 -8 8 0 t 8 0" fill="none" stroke="#111827" stroke-width="1.1"/>
    <line x1="6" y1="8" x2="24" y2="8" stroke="#111827" stroke-width="1"/>
    <line x1="6" y1="14" x2="24" y2="14" stroke="#111827" stroke-width="1"/>
  </g>
  <text x="530" y="70" font-family="Helvetica, Arial, sans-serif" font-size="10" fill="#111827">Marca: WEG</text>
  <text x="530" y="83" font-family="Helvetica, Arial, sans-serif" font-size="10" fill="#111827">Modelo: SIW 100 M010 W00</text>
  <text x="530" y="96" font-family="Helvetica, Arial, sans-serif" font-size="10" fill="#111827">Tensão CA: 220V</text>
  <text x="530" y="109" font-family="Helvetica, Arial, sans-serif" font-size="10" fill="#111827">Corrente CA: 4,54A</text>

  <line x1="465" y1="110" x2="465" y2="190" stroke="#111827" stroke-width="1"/>
  <line x1="465" y1="190" x2="445" y2="190" stroke="#111827" stroke-width="1"/>
  <line x1="445" y1="190" x2="445" y2="200" stroke="#111827" stroke-width="1"/>
  <line x1="495" y1="110" x2="495" y2="190" stroke="#111827" stroke-width="1"/>
  <line x1="495" y1="190" x2="515" y2="190" stroke="#111827" stroke-width="1"/>
  <line x1="515" y1="190" x2="515" y2="200" stroke="#111827" stroke-width="1"/>

  <text x="458" y="145" font-family="Helvetica, Arial, sans-serif" font-size="9" text-anchor="end" fill="#111827" transform="rotate(-90 458 145)">MPPT 1</text>
  <text x="502" y="145" font-family="Helvetica, Arial, sans-serif" font-size="9" fill="#111827" transform="rotate(-90 502 145)">MPPT 2</text>

  <text x="530" y="130" font-family="Helvetica, Arial, sans-serif" font-size="10" fill="#111827">4mm² Positivo</text>
  <text x="530" y="143" font-family="Helvetica, Arial, sans-serif" font-size="10" fill="#111827">4mm² Negativo</text>
  <text x="530" y="156" font-family="Helvetica, Arial, sans-serif" font-size="10" fill="#111827">4mm² Proteção</text>

  <g transform="translate(445, 216)">
    <rect x="-14" y="-16" width="28" height="32" fill="#FFFFFF" stroke="#111827" stroke-width="1"/>
    <polygon points="-8,8 8,8 0,-8" fill="#111827"/>
  </g>
  <g transform="translate(515, 216)">
    <rect x="-14" y="-16" width="28" height="32" fill="#FFFFFF" stroke="#111827" stroke-width="1"/>
    <polygon points="-8,8 8,8 0,-8" fill="#111827"/>
  </g>

  <text x="530" y="185" font-family="Helvetica, Arial, sans-serif" font-size="10" fill="#111827">Módulos fotovoltaicos</text>
  <text x="530" y="198" font-family="Helvetica, Arial, sans-serif" font-size="10" fill="#111827">Marca: WEG</text>
  <text x="530" y="211" font-family="Helvetica, Arial, sans-serif" font-size="10" fill="#111827">Modelo: WPV550-555HMM3-550W</text>
  <text x="530" y="224" font-family="Helvetica, Arial, sans-serif" font-size="10" fill="#111827">Tensão CC (Vmp): 41,96V</text>
  <text x="530" y="237" font-family="Helvetica, Arial, sans-serif" font-size="10" fill="#111827">Corrente CC (Imp): 13,11A</text>

  <g transform="translate(480, 255)">
    <line x1="-6" y1="0" x2="6" y2="0" stroke="#1e8449" stroke-width="1.7"/>
    <line x1="-4" y1="3" x2="4" y2="3" stroke="#1e8449" stroke-width="1.7"/>
    <line x1="-2" y1="6" x2="2" y2="6" stroke="#1e8449" stroke-width="1.7"/>
  </g>

  <text x="470" y="278" font-family="Helvetica, Arial, sans-serif" font-size="10" font-weight="bold" fill="#111827">Potência total:</text>
  <text x="530" y="292" font-family="Helvetica, Arial, sans-serif" font-size="10" fill="#111827">2 * 550Wp = 1.100Wp</text>


  <!-- ─────── MICROINVERSOR 3 (centro=810) ─────── -->
  <line x1="810" y1="30" x2="810" y2="60" stroke="#111827" stroke-width="1"/>
  <g transform="translate(810, 85)">
    <rect x="-30" y="-25" width="60" height="50" fill="#eef3fa" stroke="#111827" stroke-width="1.2"/>
    <line x1="-30" y1="25" x2="30" y2="-25" stroke="#1a4f8b" stroke-width="0.8"/>
    <path d="M -22 -12 q 4 -8 8 0 t 8 0" fill="none" stroke="#111827" stroke-width="1.1"/>
    <line x1="6" y1="8" x2="24" y2="8" stroke="#111827" stroke-width="1"/>
    <line x1="6" y1="14" x2="24" y2="14" stroke="#111827" stroke-width="1"/>
  </g>
  <text x="860" y="70" font-family="Helvetica, Arial, sans-serif" font-size="10" fill="#111827">Marca: WEG</text>
  <text x="860" y="83" font-family="Helvetica, Arial, sans-serif" font-size="10" fill="#111827">Modelo: SIW 100 M010 W00</text>
  <text x="860" y="96" font-family="Helvetica, Arial, sans-serif" font-size="10" fill="#111827">Tensão CA: 220V</text>
  <text x="860" y="109" font-family="Helvetica, Arial, sans-serif" font-size="10" fill="#111827">Corrente CA: 4,54A</text>

  <line x1="795" y1="110" x2="795" y2="190" stroke="#111827" stroke-width="1"/>
  <line x1="795" y1="190" x2="775" y2="190" stroke="#111827" stroke-width="1"/>
  <line x1="775" y1="190" x2="775" y2="200" stroke="#111827" stroke-width="1"/>
  <line x1="825" y1="110" x2="825" y2="190" stroke="#111827" stroke-width="1"/>
  <line x1="825" y1="190" x2="845" y2="190" stroke="#111827" stroke-width="1"/>
  <line x1="845" y1="190" x2="845" y2="200" stroke="#111827" stroke-width="1"/>

  <text x="788" y="145" font-family="Helvetica, Arial, sans-serif" font-size="9" text-anchor="end" fill="#111827" transform="rotate(-90 788 145)">MPPT 1</text>
  <text x="832" y="145" font-family="Helvetica, Arial, sans-serif" font-size="9" fill="#111827" transform="rotate(-90 832 145)">MPPT 2</text>

  <text x="860" y="130" font-family="Helvetica, Arial, sans-serif" font-size="10" fill="#111827">4mm² Positivo</text>
  <text x="860" y="143" font-family="Helvetica, Arial, sans-serif" font-size="10" fill="#111827">4mm² Negativo</text>
  <text x="860" y="156" font-family="Helvetica, Arial, sans-serif" font-size="10" fill="#111827">4mm² Proteção</text>

  <g transform="translate(775, 216)">
    <rect x="-14" y="-16" width="28" height="32" fill="#FFFFFF" stroke="#111827" stroke-width="1"/>
    <polygon points="-8,8 8,8 0,-8" fill="#111827"/>
  </g>
  <g transform="translate(845, 216)">
    <rect x="-14" y="-16" width="28" height="32" fill="#FFFFFF" stroke="#111827" stroke-width="1"/>
    <polygon points="-8,8 8,8 0,-8" fill="#111827"/>
  </g>

  <text x="860" y="185" font-family="Helvetica, Arial, sans-serif" font-size="10" fill="#111827">Módulos fotovoltaicos</text>
  <text x="860" y="198" font-family="Helvetica, Arial, sans-serif" font-size="10" fill="#111827">Marca: WEG</text>
  <text x="860" y="211" font-family="Helvetica, Arial, sans-serif" font-size="10" fill="#111827">Modelo: WPV550-555HMM3-550W</text>
  <text x="860" y="224" font-family="Helvetica, Arial, sans-serif" font-size="10" fill="#111827">Tensão CC (Vmp): 41,96V</text>
  <text x="860" y="237" font-family="Helvetica, Arial, sans-serif" font-size="10" fill="#111827">Corrente CC (Imp): 13,11A</text>

  <g transform="translate(810, 255)">
    <line x1="-6" y1="0" x2="6" y2="0" stroke="#1e8449" stroke-width="1.7"/>
    <line x1="-4" y1="3" x2="4" y2="3" stroke="#1e8449" stroke-width="1.7"/>
    <line x1="-2" y1="6" x2="2" y2="6" stroke="#1e8449" stroke-width="1.7"/>
  </g>

  <text x="800" y="278" font-family="Helvetica, Arial, sans-serif" font-size="10" font-weight="bold" fill="#111827">Potência total:</text>
  <text x="860" y="292" font-family="Helvetica, Arial, sans-serif" font-size="10" fill="#111827">2 * 550Wp = 1.100Wp</text>


  <!-- ─────── MICROINVERSOR 4 (centro=1140) ─────── -->
  <line x1="1140" y1="30" x2="1140" y2="60" stroke="#111827" stroke-width="1"/>
  <g transform="translate(1140, 85)">
    <rect x="-30" y="-25" width="60" height="50" fill="#eef3fa" stroke="#111827" stroke-width="1.2"/>
    <line x1="-30" y1="25" x2="30" y2="-25" stroke="#1a4f8b" stroke-width="0.8"/>
    <path d="M -22 -12 q 4 -8 8 0 t 8 0" fill="none" stroke="#111827" stroke-width="1.1"/>
    <line x1="6" y1="8" x2="24" y2="8" stroke="#111827" stroke-width="1"/>
    <line x1="6" y1="14" x2="24" y2="14" stroke="#111827" stroke-width="1"/>
  </g>
  <text x="1190" y="70" font-family="Helvetica, Arial, sans-serif" font-size="10" fill="#111827">Marca: WEG</text>
  <text x="1190" y="83" font-family="Helvetica, Arial, sans-serif" font-size="10" fill="#111827">Modelo: SIW 100 M010 W00</text>
  <text x="1190" y="96" font-family="Helvetica, Arial, sans-serif" font-size="10" fill="#111827">Tensão CA: 220V</text>
  <text x="1190" y="109" font-family="Helvetica, Arial, sans-serif" font-size="10" fill="#111827">Corrente CA: 4,54A</text>

  <line x1="1125" y1="110" x2="1125" y2="190" stroke="#111827" stroke-width="1"/>
  <line x1="1125" y1="190" x2="1105" y2="190" stroke="#111827" stroke-width="1"/>
  <line x1="1105" y1="190" x2="1105" y2="200" stroke="#111827" stroke-width="1"/>
  <line x1="1155" y1="110" x2="1155" y2="190" stroke="#111827" stroke-width="1"/>
  <line x1="1155" y1="190" x2="1175" y2="190" stroke="#111827" stroke-width="1"/>
  <line x1="1175" y1="190" x2="1175" y2="200" stroke="#111827" stroke-width="1"/>

  <text x="1118" y="145" font-family="Helvetica, Arial, sans-serif" font-size="9" text-anchor="end" fill="#111827" transform="rotate(-90 1118 145)">MPPT 1</text>
  <text x="1162" y="145" font-family="Helvetica, Arial, sans-serif" font-size="9" fill="#111827" transform="rotate(-90 1162 145)">MPPT 2</text>

  <text x="1190" y="130" font-family="Helvetica, Arial, sans-serif" font-size="10" fill="#111827">4mm² Positivo</text>
  <text x="1190" y="143" font-family="Helvetica, Arial, sans-serif" font-size="10" fill="#111827">4mm² Negativo</text>
  <text x="1190" y="156" font-family="Helvetica, Arial, sans-serif" font-size="10" fill="#111827">4mm² Proteção</text>

  <g transform="translate(1105, 216)">
    <rect x="-14" y="-16" width="28" height="32" fill="#FFFFFF" stroke="#111827" stroke-width="1"/>
    <polygon points="-8,8 8,8 0,-8" fill="#111827"/>
  </g>
  <g transform="translate(1175, 216)">
    <rect x="-14" y="-16" width="28" height="32" fill="#FFFFFF" stroke="#111827" stroke-width="1"/>
    <polygon points="-8,8 8,8 0,-8" fill="#111827"/>
  </g>

  <text x="1190" y="185" font-family="Helvetica, Arial, sans-serif" font-size="10" fill="#111827">Módulos fotovoltaicos</text>
  <text x="1190" y="198" font-family="Helvetica, Arial, sans-serif" font-size="10" fill="#111827">Marca: WEG</text>
  <text x="1190" y="211" font-family="Helvetica, Arial, sans-serif" font-size="10" fill="#111827">Modelo: WPV550-555HMM3-550W</text>
  <text x="1190" y="224" font-family="Helvetica, Arial, sans-serif" font-size="10" fill="#111827">Tensão CC (Vmp): 41,96V</text>
  <text x="1190" y="237" font-family="Helvetica, Arial, sans-serif" font-size="10" fill="#111827">Corrente CC (Imp): 13,11A</text>

  <g transform="translate(1140, 255)">
    <line x1="-6" y1="0" x2="6" y2="0" stroke="#1e8449" stroke-width="1.7"/>
    <line x1="-4" y1="3" x2="4" y2="3" stroke="#1e8449" stroke-width="1.7"/>
    <line x1="-2" y1="6" x2="2" y2="6" stroke="#1e8449" stroke-width="1.7"/>
  </g>

  <text x="1130" y="278" font-family="Helvetica, Arial, sans-serif" font-size="10" font-weight="bold" fill="#111827">Potência total:</text>
  <text x="1190" y="292" font-family="Helvetica, Arial, sans-serif" font-size="10" fill="#111827">2 * 550Wp = 1.100Wp</text>


  <!-- ═════════════════ BARRAMENTO CA INFERIOR ═════════════════ -->
  <text x="50" y="345" font-family="Helvetica, Arial, sans-serif" font-size="11" font-weight="bold" fill="#111827">1#4(4)+T4mm²</text>
  <text x="250" y="345" font-family="Helvetica, Arial, sans-serif" font-size="11" font-weight="bold" fill="#111827">1#4(4)+T4mm²</text>
  <line x1="50" y1="360" x2="1040" y2="360" stroke="#111827" stroke-width="1.2"/>

  <!-- ─────── MICROINVERSOR 5 (centro=150) ─────── -->
  <line x1="150" y1="360" x2="150" y2="390" stroke="#111827" stroke-width="1"/>
  <g transform="translate(150, 415)">
    <rect x="-30" y="-25" width="60" height="50" fill="#eef3fa" stroke="#111827" stroke-width="1.2"/>
    <line x1="-30" y1="25" x2="30" y2="-25" stroke="#1a4f8b" stroke-width="0.8"/>
    <path d="M -22 -12 q 4 -8 8 0 t 8 0" fill="none" stroke="#111827" stroke-width="1.1"/>
    <line x1="6" y1="8" x2="24" y2="8" stroke="#111827" stroke-width="1"/>
    <line x1="6" y1="14" x2="24" y2="14" stroke="#111827" stroke-width="1"/>
  </g>
  <text x="200" y="400" font-family="Helvetica, Arial, sans-serif" font-size="10" fill="#111827">Marca: WEG</text>
  <text x="200" y="413" font-family="Helvetica, Arial, sans-serif" font-size="10" fill="#111827">Modelo: SIW 100 M010 W00</text>
  <text x="200" y="426" font-family="Helvetica, Arial, sans-serif" font-size="10" fill="#111827">Tensão CA: 220V</text>
  <text x="200" y="439" font-family="Helvetica, Arial, sans-serif" font-size="10" fill="#111827">Corrente CA: 4,54A</text>

  <line x1="135" y1="440" x2="135" y2="520" stroke="#111827" stroke-width="1"/>
  <line x1="135" y1="520" x2="115" y2="520" stroke="#111827" stroke-width="1"/>
  <line x1="115" y1="520" x2="115" y2="530" stroke="#111827" stroke-width="1"/>
  <line x1="165" y1="440" x2="165" y2="520" stroke="#111827" stroke-width="1"/>
  <line x1="165" y1="520" x2="185" y2="520" stroke="#111827" stroke-width="1"/>
  <line x1="185" y1="520" x2="185" y2="530" stroke="#111827" stroke-width="1"/>

  <text x="128" y="475" font-family="Helvetica, Arial, sans-serif" font-size="9" text-anchor="end" fill="#111827" transform="rotate(-90 128 475)">MPPT 1</text>
  <text x="172" y="475" font-family="Helvetica, Arial, sans-serif" font-size="9" fill="#111827" transform="rotate(-90 172 475)">MPPT 2</text>

  <text x="200" y="460" font-family="Helvetica, Arial, sans-serif" font-size="10" fill="#111827">4mm² Positivo</text>
  <text x="200" y="473" font-family="Helvetica, Arial, sans-serif" font-size="10" fill="#111827">4mm² Negativo</text>
  <text x="200" y="486" font-family="Helvetica, Arial, sans-serif" font-size="10" fill="#111827">4mm² Proteção</text>

  <g transform="translate(115, 546)">
    <rect x="-14" y="-16" width="28" height="32" fill="#FFFFFF" stroke="#111827" stroke-width="1"/>
    <polygon points="-8,8 8,8 0,-8" fill="#111827"/>
  </g>
  <g transform="translate(185, 546)">
    <rect x="-14" y="-16" width="28" height="32" fill="#FFFFFF" stroke="#111827" stroke-width="1"/>
    <polygon points="-8,8 8,8 0,-8" fill="#111827"/>
  </g>

  <text x="200" y="515" font-family="Helvetica, Arial, sans-serif" font-size="10" fill="#111827">Módulos fotovoltaicos</text>
  <text x="200" y="528" font-family="Helvetica, Arial, sans-serif" font-size="10" fill="#111827">Marca: WEG</text>
  <text x="200" y="541" font-family="Helvetica, Arial, sans-serif" font-size="10" fill="#111827">Modelo: WPV550-555HMM3-550W</text>
  <text x="200" y="554" font-family="Helvetica, Arial, sans-serif" font-size="10" fill="#111827">Tensão CC (Vmp): 41,96V</text>
  <text x="200" y="567" font-family="Helvetica, Arial, sans-serif" font-size="10" fill="#111827">Corrente CC (Imp): 13,11A</text>

  <g transform="translate(150, 585)">
    <line x1="-6" y1="0" x2="6" y2="0" stroke="#1e8449" stroke-width="1.7"/>
    <line x1="-4" y1="3" x2="4" y2="3" stroke="#1e8449" stroke-width="1.7"/>
    <line x1="-2" y1="6" x2="2" y2="6" stroke="#1e8449" stroke-width="1.7"/>
  </g>

  <text x="140" y="608" font-family="Helvetica, Arial, sans-serif" font-size="10" font-weight="bold" fill="#111827">Potência total:</text>
  <text x="200" y="622" font-family="Helvetica, Arial, sans-serif" font-size="10" fill="#111827">2 * 550Wp = 1.100Wp</text>


  <!-- ─────── MICROINVERSOR 6 (centro=480) ─────── -->
  <line x1="480" y1="360" x2="480" y2="390" stroke="#111827" stroke-width="1"/>
  <g transform="translate(480, 415)">
    <rect x="-30" y="-25" width="60" height="50" fill="#eef3fa" stroke="#111827" stroke-width="1.2"/>
    <line x1="-30" y1="25" x2="30" y2="-25" stroke="#1a4f8b" stroke-width="0.8"/>
    <path d="M -22 -12 q 4 -8 8 0 t 8 0" fill="none" stroke="#111827" stroke-width="1.1"/>
    <line x1="6" y1="8" x2="24" y2="8" stroke="#111827" stroke-width="1"/>
    <line x1="6" y1="14" x2="24" y2="14" stroke="#111827" stroke-width="1"/>
  </g>
  <text x="530" y="400" font-family="Helvetica, Arial, sans-serif" font-size="10" fill="#111827">Marca: WEG</text>
  <text x="530" y="413" font-family="Helvetica, Arial, sans-serif" font-size="10" fill="#111827">Modelo: SIW 100 M010 W00</text>
  <text x="530" y="426" font-family="Helvetica, Arial, sans-serif" font-size="10" fill="#111827">Tensão CA: 220V</text>
  <text x="530" y="439" font-family="Helvetica, Arial, sans-serif" font-size="10" fill="#111827">Corrente CA: 4,54A</text>

  <line x1="465" y1="440" x2="465" y2="520" stroke="#111827" stroke-width="1"/>
  <line x1="465" y1="520" x2="445" y2="520" stroke="#111827" stroke-width="1"/>
  <line x1="445" y1="520" x2="445" y2="530" stroke="#111827" stroke-width="1"/>
  <line x1="495" y1="440" x2="495" y2="520" stroke="#111827" stroke-width="1"/>
  <line x1="495" y1="520" x2="515" y2="520" stroke="#111827" stroke-width="1"/>
  <line x1="515" y1="520" x2="515" y2="530" stroke="#111827" stroke-width="1"/>

  <text x="458" y="475" font-family="Helvetica, Arial, sans-serif" font-size="9" text-anchor="end" fill="#111827" transform="rotate(-90 458 475)">MPPT 1</text>
  <text x="502" y="475" font-family="Helvetica, Arial, sans-serif" font-size="9" fill="#111827" transform="rotate(-90 502 475)">MPPT 2</text>

  <text x="530" y="460" font-family="Helvetica, Arial, sans-serif" font-size="10" fill="#111827">4mm² Positivo</text>
  <text x="530" y="473" font-family="Helvetica, Arial, sans-serif" font-size="10" fill="#111827">4mm² Negativo</text>
  <text x="530" y="486" font-family="Helvetica, Arial, sans-serif" font-size="10" fill="#111827">4mm² Proteção</text>

  <g transform="translate(445, 546)">
    <rect x="-14" y="-16" width="28" height="32" fill="#FFFFFF" stroke="#111827" stroke-width="1"/>
    <polygon points="-8,8 8,8 0,-8" fill="#111827"/>
  </g>
  <g transform="translate(515, 546)">
    <rect x="-14" y="-16" width="28" height="32" fill="#FFFFFF" stroke="#111827" stroke-width="1"/>
    <polygon points="-8,8 8,8 0,-8" fill="#111827"/>
  </g>

  <text x="530" y="515" font-family="Helvetica, Arial, sans-serif" font-size="10" fill="#111827">Módulos fotovoltaicos</text>
  <text x="530" y="528" font-family="Helvetica, Arial, sans-serif" font-size="10" fill="#111827">Marca: WEG</text>
  <text x="530" y="541" font-family="Helvetica, Arial, sans-serif" font-size="10" fill="#111827">Modelo: WPV550-555HMM3-550W</text>
  <text x="530" y="554" font-family="Helvetica, Arial, sans-serif" font-size="10" fill="#111827">Tensão CC (Vmp): 41,96V</text>
  <text x="530" y="567" font-family="Helvetica, Arial, sans-serif" font-size="10" fill="#111827">Corrente CC (Imp): 13,11A</text>

  <g transform="translate(480, 585)">
    <line x1="-6" y1="0" x2="6" y2="0" stroke="#1e8449" stroke-width="1.7"/>
    <line x1="-4" y1="3" x2="4" y2="3" stroke="#1e8449" stroke-width="1.7"/>
    <line x1="-2" y1="6" x2="2" y2="6" stroke="#1e8449" stroke-width="1.7"/>
  </g>

  <text x="470" y="608" font-family="Helvetica, Arial, sans-serif" font-size="10" font-weight="bold" fill="#111827">Potência total:</text>
  <text x="530" y="622" font-family="Helvetica, Arial, sans-serif" font-size="10" fill="#111827">2 * 550Wp = 1.100Wp</text>


  <!-- ─────── MICROINVERSOR 7 (centro=810) ─────── -->
  <line x1="810" y1="360" x2="810" y2="390" stroke="#111827" stroke-width="1"/>
  <g transform="translate(810, 415)">
    <rect x="-30" y="-25" width="60" height="50" fill="#eef3fa" stroke="#111827" stroke-width="1.2"/>
    <line x1="-30" y1="25" x2="30" y2="-25" stroke="#1a4f8b" stroke-width="0.8"/>
    <path d="M -22 -12 q 4 -8 8 0 t 8 0" fill="none" stroke="#111827" stroke-width="1.1"/>
    <line x1="6" y1="8" x2="24" y2="8" stroke="#111827" stroke-width="1"/>
    <line x1="6" y1="14" x2="24" y2="14" stroke="#111827" stroke-width="1"/>
  </g>
  <text x="860" y="400" font-family="Helvetica, Arial, sans-serif" font-size="10" fill="#111827">Marca: WEG</text>
  <text x="860" y="413" font-family="Helvetica, Arial, sans-serif" font-size="10" fill="#111827">Modelo: SIW 100 M010 W00</text>
  <text x="860" y="426" font-family="Helvetica, Arial, sans-serif" font-size="10" fill="#111827">Tensão CA: 220V</text>
  <text x="860" y="439" font-family="Helvetica, Arial, sans-serif" font-size="10" fill="#111827">Corrente CA: 4,54A</text>

  <line x1="795" y1="440" x2="795" y2="520" stroke="#111827" stroke-width="1"/>
  <line x1="795" y1="520" x2="775" y2="520" stroke="#111827" stroke-width="1"/>
  <line x1="775" y1="520" x2="775" y2="530" stroke="#111827" stroke-width="1"/>
  <line x1="825" y1="440" x2="825" y2="520" stroke="#111827" stroke-width="1"/>
  <line x1="825" y1="520" x2="845" y2="520" stroke="#111827" stroke-width="1"/>
  <line x1="845" y1="520" x2="845" y2="530" stroke="#111827" stroke-width="1"/>

  <text x="788" y="475" font-family="Helvetica, Arial, sans-serif" font-size="9" text-anchor="end" fill="#111827" transform="rotate(-90 788 475)">MPPT 1</text>
  <text x="832" y="475" font-family="Helvetica, Arial, sans-serif" font-size="9" fill="#111827" transform="rotate(-90 832 475)">MPPT 2</text>

  <text x="860" y="460" font-family="Helvetica, Arial, sans-serif" font-size="10" fill="#111827">4mm² Positivo</text>
  <text x="860" y="473" font-family="Helvetica, Arial, sans-serif" font-size="10" fill="#111827">4mm² Negativo</text>
  <text x="860" y="486" font-family="Helvetica, Arial, sans-serif" font-size="10" fill="#111827">4mm² Proteção</text>

  <g transform="translate(775, 546)">
    <rect x="-14" y="-16" width="28" height="32" fill="#FFFFFF" stroke="#111827" stroke-width="1"/>
    <polygon points="-8,8 8,8 0,-8" fill="#111827"/>
  </g>
  <g transform="translate(845, 546)">
    <rect x="-14" y="-16" width="28" height="32" fill="#FFFFFF" stroke="#111827" stroke-width="1"/>
    <polygon points="-8,8 8,8 0,-8" fill="#111827"/>
  </g>

  <text x="860" y="515" font-family="Helvetica, Arial, sans-serif" font-size="10" fill="#111827">Módulos fotovoltaicos</text>
  <text x="860" y="528" font-family="Helvetica, Arial, sans-serif" font-size="10" fill="#111827">Marca: WEG</text>
  <text x="860" y="541" font-family="Helvetica, Arial, sans-serif" font-size="10" fill="#111827">Modelo: WPV550-555HMM3-550W</text>
  <text x="860" y="554" font-family="Helvetica, Arial, sans-serif" font-size="10" fill="#111827">Tensão CC (Vmp): 41,96V</text>
  <text x="860" y="567" font-family="Helvetica, Arial, sans-serif" font-size="10" fill="#111827">Corrente CC (Imp): 13,11A</text>

  <g transform="translate(810, 585)">
    <line x1="-6" y1="0" x2="6" y2="0" stroke="#1e8449" stroke-width="1.7"/>
    <line x1="-4" y1="3" x2="4" y2="3" stroke="#1e8449" stroke-width="1.7"/>
    <line x1="-2" y1="6" x2="2" y2="6" stroke="#1e8449" stroke-width="1.7"/>
  </g>

  <text x="800" y="608" font-family="Helvetica, Arial, sans-serif" font-size="10" font-weight="bold" fill="#111827">Potência total:</text>
  <text x="860" y="622" font-family="Helvetica, Arial, sans-serif" font-size="10" fill="#111827">2 * 550Wp = 1.100Wp</text>


  <!-- ═══ NOTAS TÉCNICAS (à direita) ═══ -->
  <text x="1100" y="490" font-family="Helvetica, Arial, sans-serif" font-size="10" font-weight="bold" fill="#111827">NOTAS:</text>
  <text x="1100" y="505" font-family="Helvetica, Arial, sans-serif" font-size="8" fill="#111827">1. A seção transversal dos condutores foram dimensionadas em função da corrente máxima,</text>
  <text x="1100" y="516" font-family="Helvetica, Arial, sans-serif" font-size="8" fill="#111827">    permitindo-se utilizar até uma faixa acima da descrita em cada trecho dessa.</text>
  <text x="1100" y="529" font-family="Helvetica, Arial, sans-serif" font-size="8" fill="#111827">2. Cabos em corrente contínua, na tensão elétrica máxima de 1,8kV, isolação em XLPE.</text>
  <text x="1100" y="542" font-family="Helvetica, Arial, sans-serif" font-size="8" fill="#111827">3. Cabos em corrente alternada, na tensão máxima de 1kV, isolação e cobertura em PVC.</text>
  <text x="1100" y="555" font-family="Helvetica, Arial, sans-serif" font-size="8" fill="#111827">4. Cada string será protegida individualmente, através das proteções internas do inversor.</text>
  <text x="1100" y="568" font-family="Helvetica, Arial, sans-serif" font-size="8" fill="#111827">5. A seção transversal dos condutores foram dimensionadas em função da corrente máxima,</text>
  <text x="1100" y="579" font-family="Helvetica, Arial, sans-serif" font-size="8" fill="#111827">    permitindo-se utilizar até uma faixa acima da descrita em cada trecho dessa.</text>
  <text x="1100" y="592" font-family="Helvetica, Arial, sans-serif" font-size="8" fill="#111827">6. Cada MPPT possui apenas uma entrada.</text>
</svg>
